<svg width="121" height="30" viewBox="0 0 121 30" fill="none" xmlns="http://www.w3.org/2000/svg">
<path d="M80.1055 7.42578C80.1055 7.95964 79.9701 8.36849 79.6992 8.65234C79.431 8.9362 79.043 9.07812 78.5352 9.07812C78.0378 9.07812 77.6146 8.98047 77.2656 8.78516V7.73438C77.6927 8.01302 78.0846 8.15234 78.4414 8.15234C78.6445 8.15234 78.7969 8.09635 78.8984 7.98438C79.0026 7.8724 79.0547 7.72005 79.0547 7.52734C79.0547 7.33724 78.9935 7.16406 78.8711 7.00781C78.7487 6.84896 78.5469 6.67318 78.2656 6.48047C78.0208 6.3112 77.8346 6.14974 77.707 5.99609C77.582 5.83984 77.4844 5.66536 77.4141 5.47266C77.3464 5.27995 77.3125 5.05599 77.3125 4.80078C77.3125 4.3112 77.4479 3.92318 77.7188 3.63672C77.9922 3.35026 78.3581 3.20703 78.8164 3.20703C79.2539 3.20703 79.6745 3.32943 80.0781 3.57422L79.7266 4.42578C79.6016 4.35286 79.4701 4.28776 79.332 4.23047C79.1966 4.17318 79.0508 4.14453 78.8945 4.14453C78.7227 4.14453 78.5898 4.20182 78.4961 4.31641C78.4049 4.42839 78.3594 4.58203 78.3594 4.77734C78.3594 4.97005 78.4141 5.13802 78.5234 5.28125C78.6354 5.42448 78.8294 5.58724 79.1055 5.76953C79.4779 6.01953 79.737 6.27474 79.8828 6.53516C80.0312 6.79557 80.1055 7.09245 80.1055 7.42578ZM83.3828 9H80.8086V3.28906H83.3828V4.20703H81.8711V5.56641H83.2734V6.48828H81.8711V8.07031H83.3828V9ZM85.2773 6.77734V9H84.2148V3.28906H85.6055C86.194 3.28906 86.6276 3.42839 86.9062 3.70703C87.1875 3.98568 87.3281 4.41146 87.3281 4.98438C87.3281 5.70573 87.0846 6.20964 86.5977 6.49609L87.6953 9H86.5586L85.6562 6.77734H85.2773ZM85.2773 5.86328H85.5508C85.8008 5.86328 85.9805 5.79297 86.0898 5.65234C86.1992 5.50911 86.2539 5.29688 86.2539 5.01562C86.2539 4.72396 86.1953 4.51693 86.0781 4.39453C85.9635 4.26953 85.7852 4.20703 85.543 4.20703H85.2773V5.86328ZM90.6719 3.28906H91.7422L90.3984 9H89.0469L87.7109 3.28906H88.7812L89.5273 6.77734C89.5951 7.07422 89.6615 7.5 89.7266 8.05469C89.7812 7.58333 89.8503 7.15755 89.9336 6.77734L90.6719 3.28906ZM92.4375 9V3.28906H93.4375V9H92.4375ZM96.5391 4.13672C96.2344 4.13672 95.9935 4.3151 95.8164 4.67188C95.6419 5.02865 95.5547 5.52474 95.5547 6.16016C95.5547 7.48307 95.8997 8.14453 96.5898 8.14453C96.8919 8.14453 97.2083 8.04818 97.5391 7.85547V8.80078C97.2604 8.98568 96.9036 9.07812 96.4688 9.07812C95.8255 9.07812 95.3307 8.82292 94.9844 8.3125C94.6406 7.79948 94.4688 7.07943 94.4688 6.15234C94.4688 5.22526 94.6458 4.5026 95 3.98438C95.3568 3.46615 95.8516 3.20703 96.4844 3.20703C96.6927 3.20703 96.8919 3.23568 97.082 3.29297C97.2747 3.35026 97.4805 3.45052 97.6992 3.59375L97.3477 4.45703C97.2305 4.3763 97.1055 4.30339 96.9727 4.23828C96.8398 4.17057 96.6953 4.13672 96.5391 4.13672ZM97.0586 10.0156C97.0586 10.2943 96.9661 10.5143 96.7812 10.6758C96.5964 10.8398 96.3099 10.9219 95.9219 10.9219C95.7318 10.9219 95.5612 10.8945 95.4102 10.8398V10.2383C95.569 10.2826 95.7266 10.3047 95.8828 10.3047C96.112 10.3047 96.2266 10.2188 96.2266 10.0469C96.2266 9.82812 96.0221 9.6849 95.6133 9.61719L95.9219 9H96.5977L96.4531 9.29688C96.6302 9.34115 96.7747 9.42318 96.8867 9.54297C97.0013 9.66276 97.0586 9.82031 97.0586 10.0156ZM102.199 6.13672C102.199 7.08203 102.022 7.80859 101.668 8.31641C101.314 8.82422 100.807 9.07812 100.148 9.07812C99.487 9.07812 98.9792 8.82552 98.625 8.32031C98.2708 7.8125 98.0938 7.08203 98.0938 6.12891C98.0938 5.18359 98.2708 4.45964 98.625 3.95703C98.9792 3.45182 99.4896 3.19922 100.156 3.19922C100.815 3.19922 101.32 3.45312 101.672 3.96094C102.023 4.46615 102.199 5.19141 102.199 6.13672ZM99.1797 6.13672C99.1797 6.78776 99.2617 7.28385 99.4258 7.625C99.5898 7.96615 99.8307 8.13672 100.148 8.13672C100.789 8.13672 101.109 7.47005 101.109 6.13672C101.109 4.80339 100.792 4.13672 100.156 4.13672C99.8333 4.13672 99.5898 4.30729 99.4258 4.64844C99.2617 4.98698 99.1797 5.48307 99.1797 6.13672ZM108.645 6.08984C108.645 7.03255 108.452 7.75391 108.066 8.25391C107.684 8.7513 107.132 9 106.41 9H105.012V3.28906H106.539C107.203 3.28906 107.72 3.53516 108.09 4.02734C108.46 4.51693 108.645 5.20443 108.645 6.08984ZM107.555 6.12109C107.555 4.84505 107.203 4.20703 106.5 4.20703H106.074V8.07031H106.418C106.806 8.07031 107.092 7.90885 107.277 7.58594C107.462 7.26042 107.555 6.77214 107.555 6.12109ZM112.055 9H109.48V3.28906H112.055V4.20703H110.543V5.56641H111.945V6.48828H110.543V8.07031H112.055V9ZM77.6953 18V12.2891H78.6953V18H77.6953ZM83.9023 18H82.6055L80.8398 13.8633H80.7891C80.8542 14.1784 80.8867 14.5169 80.8867 14.8789V18H79.9023V12.2891H81.207L82.957 16.3828H83C82.9505 16.1094 82.9258 15.7839 82.9258 15.4062V12.2891H83.9023V18ZM85.9648 18H84.9102V12.2891H87.4688V13.207H85.9648V14.793H87.3672V15.7109H85.9648V18ZM92.1133 15.1367C92.1133 16.082 91.9362 16.8086 91.582 17.3164C91.2279 17.8242 90.7214 18.0781 90.0625 18.0781C89.401 18.0781 88.8932 17.8255 88.5391 17.3203C88.1849 16.8125 88.0078 16.082 88.0078 15.1289C88.0078 14.1836 88.1849 13.4596 88.5391 12.957C88.8932 12.4518 89.4036 12.1992 90.0703 12.1992C90.7292 12.1992 91.2344 12.4531 91.5859 12.9609C91.9375 13.4661 92.1133 14.1914 92.1133 15.1367ZM89.0938 15.1367C89.0938 15.7878 89.1758 16.2839 89.3398 16.625C89.5039 16.9661 89.7448 17.1367 90.0625 17.1367C90.7031 17.1367 91.0234 16.4701 91.0234 15.1367C91.0234 13.8034 90.7057 13.1367 90.0703 13.1367C89.7474 13.1367 89.5039 13.3073 89.3398 13.6484C89.1758 13.987 89.0938 14.4831 89.0938 15.1367ZM94.0117 15.7773V18H92.9492V12.2891H94.3398C94.9284 12.2891 95.362 12.4284 95.6406 12.707C95.9219 12.9857 96.0625 13.4115 96.0625 13.9844C96.0625 14.7057 95.819 15.2096 95.332 15.4961L96.4297 18H95.293L94.3906 15.7773H94.0117ZM94.0117 14.8633H94.2852C94.5352 14.8633 94.7148 14.793 94.8242 14.6523C94.9336 14.5091 94.9883 14.2969 94.9883 14.0156C94.9883 13.724 94.9297 13.5169 94.8125 13.3945C94.6979 13.2695 94.5195 13.207 94.2773 13.207H94.0117V14.8633ZM98.9883 18L97.9023 13.1367H97.8594C97.9089 13.5117 97.9336 13.8555 97.9336 14.168V18H96.9492V12.2891H98.582L99.5586 16.7773H99.5898L100.559 12.2891H102.215V18H101.207V14.1289C101.207 13.8086 101.225 13.4805 101.262 13.1445H101.23L100.148 18H98.9883ZM105.926 18L105.598 16.5586H104.109L103.781 18H102.719L104.133 12.2656H105.574L106.992 18H105.926ZM105.398 15.6172L105.094 14.2891C105.076 14.2083 105.034 14.0065 104.969 13.6836C104.906 13.3581 104.868 13.1406 104.855 13.0312C104.822 13.2552 104.779 13.5026 104.727 13.7734C104.674 14.0417 104.539 14.6562 104.32 15.6172H105.398ZM109.391 13.1367C109.086 13.1367 108.845 13.3151 108.668 13.6719C108.493 14.0286 108.406 14.5247 108.406 15.1602C108.406 16.4831 108.751 17.1445 109.441 17.1445C109.743 17.1445 110.06 17.0482 110.391 16.8555V17.8008C110.112 17.9857 109.755 18.0781 109.32 18.0781C108.677 18.0781 108.182 17.8229 107.836 17.3125C107.492 16.7995 107.32 16.0794 107.32 15.1523C107.32 14.2253 107.497 13.5026 107.852 12.9844C108.208 12.4661 108.703 12.207 109.336 12.207C109.544 12.207 109.743 12.2357 109.934 12.293C110.126 12.3503 110.332 12.4505 110.551 12.5938L110.199 13.457C110.082 13.3763 109.957 13.3034 109.824 13.2383C109.691 13.1706 109.547 13.1367 109.391 13.1367ZM109.91 19.0156C109.91 19.2943 109.818 19.5143 109.633 19.6758C109.448 19.8398 109.161 19.9219 108.773 19.9219C108.583 19.9219 108.413 19.8945 108.262 19.8398V19.2383C108.421 19.2826 108.578 19.3047 108.734 19.3047C108.964 19.3047 109.078 19.2188 109.078 19.0469C109.078 18.8281 108.874 18.6849 108.465 18.6172L108.773 18H109.449L109.305 18.2969C109.482 18.3411 109.626 18.4232 109.738 18.543C109.853 18.6628 109.91 18.8203 109.91 19.0156ZM113.902 18L113.574 16.5586H112.086L111.758 18H110.695L112.109 12.2656H113.551L114.969 18H113.902ZM113.375 15.6172L113.07 14.2891C113.052 14.2083 113.01 14.0065 112.945 13.6836C112.883 13.3581 112.845 13.1406 112.832 13.0312C112.798 13.2552 112.755 13.5026 112.703 13.7734C112.651 14.0417 112.516 14.6562 112.297 15.6172H113.375ZM112.371 11.4141C112.29 11.4141 112.225 11.4453 112.176 11.5078C112.129 11.5677 112.092 11.6784 112.066 11.8398H111.516C111.544 11.4414 111.633 11.1458 111.781 10.9531C111.932 10.7604 112.129 10.6641 112.371 10.6641C112.483 10.6641 112.583 10.6862 112.672 10.7305C112.763 10.7721 112.848 10.819 112.926 10.8711C113.004 10.9232 113.079 10.9714 113.152 11.0156C113.225 11.0573 113.301 11.0781 113.379 11.0781C113.467 11.0781 113.531 11.0443 113.57 10.9766C113.612 10.9089 113.647 10.8021 113.676 10.6562H114.227C114.198 11.0521 114.107 11.3477 113.953 11.543C113.802 11.7357 113.608 11.832 113.371 11.832C113.257 11.832 113.154 11.8112 113.062 11.7695C112.974 11.7253 112.891 11.6771 112.812 11.625C112.737 11.5703 112.664 11.5221 112.594 11.4805C112.523 11.4362 112.449 11.4141 112.371 11.4141ZM119.402 15.1367C119.402 16.082 119.225 16.8086 118.871 17.3164C118.517 17.8242 118.01 18.0781 117.352 18.0781C116.69 18.0781 116.182 17.8255 115.828 17.3203C115.474 16.8125 115.297 16.082 115.297 15.1289C115.297 14.1836 115.474 13.4596 115.828 12.957C116.182 12.4518 116.693 12.1992 117.359 12.1992C118.018 12.1992 118.523 12.4531 118.875 12.9609C119.227 13.4661 119.402 14.1914 119.402 15.1367ZM116.383 15.1367C116.383 15.7878 116.465 16.2839 116.629 16.625C116.793 16.9661 117.034 17.1367 117.352 17.1367C117.992 17.1367 118.312 16.4701 118.312 15.1367C118.312 13.8034 117.995 13.1367 117.359 13.1367C117.036 13.1367 116.793 13.3073 116.629 13.6484C116.465 13.987 116.383 14.4831 116.383 15.1367ZM80.207 28L79.8789 26.5586H78.3906L78.0625 28H77L78.4141 22.2656H79.8555L81.2734 28H80.207ZM79.6797 25.6172L79.375 24.2891C79.3568 24.2083 79.3151 24.0065 79.25 23.6836C79.1875 23.3581 79.1497 23.1406 79.1367 23.0312C79.1029 23.2552 79.0599 23.5026 79.0078 23.7734C78.9557 24.0417 78.8203 24.6562 78.6016 25.6172H79.6797ZM85.707 25.1367C85.707 26.082 85.5299 26.8086 85.1758 27.3164C84.8216 27.8242 84.3151 28.0781 83.6562 28.0781C82.9948 28.0781 82.487 27.8255 82.1328 27.3203C81.7786 26.8125 81.6016 26.082 81.6016 25.1289C81.6016 24.1836 81.7786 23.4596 82.1328 22.957C82.487 22.4518 82.9974 22.1992 83.6641 22.1992C84.3229 22.1992 84.8281 22.4531 85.1797 22.9609C85.5312 23.4661 85.707 24.1914 85.707 25.1367ZM82.6875 25.1367C82.6875 25.7878 82.7695 26.2839 82.9336 26.625C83.0977 26.9661 83.3385 27.1367 83.6562 27.1367C84.2969 27.1367 84.6172 26.4701 84.6172 25.1367C84.6172 23.8034 84.2995 23.1367 83.6641 23.1367C83.3411 23.1367 83.0977 23.3073 82.9336 23.6484C82.7695 23.987 82.6875 24.4831 82.6875 25.1367ZM90.4141 23.1367C90.1094 23.1367 89.8685 23.3151 89.6914 23.6719C89.5169 24.0286 89.4297 24.5247 89.4297 25.1602C89.4297 26.4831 89.7747 27.1445 90.4648 27.1445C90.7669 27.1445 91.0833 27.0482 91.4141 26.8555V27.8008C91.1354 27.9857 90.7786 28.0781 90.3438 28.0781C89.7005 28.0781 89.2057 27.8229 88.8594 27.3125C88.5156 26.7995 88.3438 26.0794 88.3438 25.1523C88.3438 24.2253 88.5208 23.5026 88.875 22.9844C89.2318 22.4661 89.7266 22.207 90.3594 22.207C90.5677 22.207 90.7669 22.2357 90.957 22.293C91.1497 22.3503 91.3555 22.4505 91.5742 22.5938L91.2227 23.457C91.1055 23.3763 90.9805 23.3034 90.8477 23.2383C90.7148 23.1706 90.5703 23.1367 90.4141 23.1367ZM92.4141 28V22.2891H93.4141V28H92.4141ZM98.2539 25.0898C98.2539 26.0326 98.0612 26.7539 97.6758 27.2539C97.293 27.7513 96.7409 28 96.0195 28H94.6211V22.2891H96.1484C96.8125 22.2891 97.3294 22.5352 97.6992 23.0273C98.069 23.5169 98.2539 24.2044 98.2539 25.0898ZM97.1641 25.1211C97.1641 23.8451 96.8125 23.207 96.1094 23.207H95.6836V27.0703H96.0273C96.4154 27.0703 96.7018 26.9089 96.8867 26.5859C97.0716 26.2604 97.1641 25.7721 97.1641 25.1211ZM101.793 28L101.465 26.5586H99.9766L99.6484 28H98.5859L100 22.2656H101.441L102.859 28H101.793ZM101.266 25.6172L100.961 24.2891C100.943 24.2083 100.901 24.0065 100.836 23.6836C100.773 23.3581 100.736 23.1406 100.723 23.0312C100.689 23.2552 100.646 23.5026 100.594 23.7734C100.542 24.0417 100.406 24.6562 100.188 25.6172H101.266ZM106.996 25.0898C106.996 26.0326 106.803 26.7539 106.418 27.2539C106.035 27.7513 105.483 28 104.762 28H103.363V22.2891H104.891C105.555 22.2891 106.072 22.5352 106.441 23.0273C106.811 23.5169 106.996 24.2044 106.996 25.0898ZM105.906 25.1211C105.906 23.8451 105.555 23.207 104.852 23.207H104.426V27.0703H104.77C105.158 27.0703 105.444 26.9089 105.629 26.5859C105.814 26.2604 105.906 25.7721 105.906 25.1211ZM110.535 28L110.207 26.5586H108.719L108.391 28H107.328L108.742 22.2656H110.184L111.602 28H110.535ZM110.008 25.6172L109.703 24.2891C109.685 24.2083 109.643 24.0065 109.578 23.6836C109.516 23.3581 109.478 23.1406 109.465 23.0312C109.431 23.2552 109.388 23.5026 109.336 23.7734C109.284 24.0417 109.148 24.6562 108.93 25.6172H110.008ZM109.004 21.4141C108.923 21.4141 108.858 21.4453 108.809 21.5078C108.762 21.5677 108.725 21.6784 108.699 21.8398H108.148C108.177 21.4414 108.266 21.1458 108.414 20.9531C108.565 20.7604 108.762 20.6641 109.004 20.6641C109.116 20.6641 109.216 20.6862 109.305 20.7305C109.396 20.7721 109.48 20.819 109.559 20.8711C109.637 20.9232 109.712 20.9714 109.785 21.0156C109.858 21.0573 109.934 21.0781 110.012 21.0781C110.1 21.0781 110.164 21.0443 110.203 20.9766C110.245 20.9089 110.28 20.8021 110.309 20.6562H110.859C110.831 21.0521 110.74 21.3477 110.586 21.543C110.435 21.7357 110.241 21.832 110.004 21.832C109.889 21.832 109.786 21.8112 109.695 21.7695C109.607 21.7253 109.523 21.6771 109.445 21.625C109.37 21.5703 109.297 21.5221 109.227 21.4805C109.156 21.4362 109.082 21.4141 109.004 21.4141ZM116.035 25.1367C116.035 26.082 115.858 26.8086 115.504 27.3164C115.15 27.8242 114.643 28.0781 113.984 28.0781C113.323 28.0781 112.815 27.8255 112.461 27.3203C112.107 26.8125 111.93 26.082 111.93 25.1289C111.93 24.1836 112.107 23.4596 112.461 22.957C112.815 22.4518 113.326 22.1992 113.992 22.1992C114.651 22.1992 115.156 22.4531 115.508 22.9609C115.859 23.4661 116.035 24.1914 116.035 25.1367ZM113.016 25.1367C113.016 25.7878 113.098 26.2839 113.262 26.625C113.426 26.9661 113.667 27.1367 113.984 27.1367C114.625 27.1367 114.945 26.4701 114.945 25.1367C114.945 23.8034 114.628 23.1367 113.992 23.1367C113.669 23.1367 113.426 23.3073 113.262 23.6484C113.098 23.987 113.016 24.4831 113.016 25.1367Z" fill="#010101" fill-opacity="0.7"/>
<path d="M1 9C1 7.89543 1.89543 7 3 7H17.3077C18.4122 7 19.3077 7.89543 19.3077 9V20.0769C19.3077 21.1815 18.4122 22.0769 17.3077 22.0769H15.8284C15.298 22.0769 14.7893 22.2876 14.4142 22.6627L12.1065 24.9704C11.3255 25.7514 10.0591 25.7514 9.27808 24.9704L6.9704 22.6627C6.59532 22.2876 6.08662 22.0769 5.55618 22.0769H3C1.89543 22.0769 1 21.1815 1 20.0769V9Z" fill="#EB2227" stroke="#0071CE"/>
<path d="M18.7689 17.2308L5.84584 7.53848C0.99993 7.53848 1.53835 6.46157 1.53816 12.9231C4.76905 15.0769 10.6921 19.3846 14.4612 22.0769C19.3076 22.0769 18.7689 21 18.7689 17.2308Z" fill="white"/>
<path d="M10.1539 12.3846L10.7583 14.2449H12.7144L11.1319 15.3947L11.7363 17.255L10.1539 16.1053L8.57136 17.255L9.17582 15.3947L7.59332 14.2449H9.54939L10.1539 12.3846Z" fill="#0071CE"/>
<path d="M29.8442 10.2889C28.9095 9.42953 27.5525 8.97722 26.3464 8.97722C24.3562 8.97722 22.2153 9.95722 22.2153 12.3243C22.2153 14.2541 23.5873 14.9477 24.9442 15.3849C26.3464 15.8372 27.1605 16.0935 27.1605 16.9077C27.1605 17.7671 26.467 18.0686 25.683 18.0686C24.8387 18.0686 23.8889 17.5861 23.3762 16.9378L21.6876 18.6566C22.6224 19.6366 24.1602 20.1944 25.683 20.1944C27.7938 20.1944 29.7688 19.0938 29.7688 16.6363C29.7688 14.5104 27.8993 13.8923 26.4519 13.4249C25.4418 13.1083 24.8085 12.8821 24.8085 12.1735C24.8085 11.3292 25.6378 11.1031 26.3012 11.1031C26.9645 11.1031 27.7636 11.4649 28.2008 12.0228L29.8442 10.2889Z" fill="#0A67B2"/>
<path d="M34.0631 19.9231V9.2486H31.4698V19.9231H34.0631Z" fill="#0A67B2"/>
<path d="M45.6626 18.4455L43.8685 16.7569C43.4162 17.3901 42.6171 17.8424 41.6069 17.8424C39.8279 17.8424 38.5765 16.5157 38.5765 14.5708C38.5765 12.6861 39.858 11.2991 41.6522 11.2991C42.4663 11.2991 43.3257 11.6157 43.8082 12.2791L45.5571 10.5301C44.6675 9.50491 43.0543 8.96214 41.5617 8.96214C38.3051 8.96214 35.7722 11.1483 35.7722 14.5708C35.7722 17.9178 38.2297 20.2095 41.5165 20.2095C43.3106 20.2095 44.7278 19.5311 45.6626 18.4455Z" fill="#0A67B2"/>
<path d="M59.384 12.5354C59.384 10.0929 57.5446 9.2486 55.2077 9.2486H51.2877V19.9231H53.8659V15.8975H55.1474C57.3788 15.8975 59.384 15.008 59.384 12.5354ZM56.8059 12.5504C56.8059 13.5606 55.9163 13.8471 54.9514 13.8471H53.8659V11.3292H54.9966C55.9163 11.3292 56.8059 11.5252 56.8059 12.5504Z" fill="#0A67B2"/>
<path d="M70.9999 19.9231L66.5673 9.2486H64.0645L59.5867 19.9231H62.391L63.175 17.8274H67.3061L68.1353 19.9231H70.9999ZM66.5975 15.7618H63.9138L65.2707 12.0981L66.5975 15.7618Z" fill="#0A67B2"/>
<rect x="47.3076" y="17.7692" width="2.15384" height="2.15384" fill="#EB2227"/>
</svg>
